<svg width="61" height="51" viewBox="0 0 61 51" fill="none" xmlns="http://www.w3.org/2000/svg">
<g clip-path="url(#clip0_470:78433)">
<path d="M0.00839135 21.7295C0.970306 27.2115 1.74096 32.7218 2.60443 38.218C2.85195 39.7867 3.10789 41.3554 3.37509 42.9213C3.47072 43.4706 4.30044 43.2384 4.20481 42.6919C3.26259 37.2071 2.49756 31.6968 1.62002 26.2006C1.3697 24.6319 1.11094 23.0632 0.8353 21.4973C0.742484 20.9508 -0.0872376 21.183 0.00839135 21.7295Z" fill="white"/>
<path d="M0.475198 21.8203C4.17379 21.6476 7.72049 20.4385 11.3797 19.9769C13.1742 19.7504 14.9827 19.6117 16.7715 19.3511C18.5069 19.0963 20.1691 18.6206 21.8483 18.1194C23.6877 17.5701 25.5637 17.0207 27.4988 17.0576C28.0529 17.0689 28.0529 16.1996 27.4988 16.1911C24.0337 16.126 20.8413 17.7711 17.4803 18.3629C15.683 18.6801 13.8632 18.8188 12.0547 19.0283C10.2181 19.2407 8.41521 19.5805 6.60951 19.9713C4.58443 20.4102 2.55091 20.8576 0.475198 20.9538C-0.0760747 20.9793 -0.0816999 21.8458 0.475198 21.8203Z" fill="white"/>
<path d="M27.0685 16.6213C27.3892 19.1754 27.9376 21.6927 28.5424 24.193C28.8405 25.4191 29.1668 26.6367 29.4565 27.8656C29.7405 29.0747 29.9205 30.3036 30.1287 31.5269C30.3565 32.8861 30.6152 34.2424 31.0709 35.5421C31.2537 36.066 32.0862 35.8394 31.9006 35.3127C31.1018 33.0305 30.9134 30.5981 30.4212 28.2422C29.9093 25.7787 29.1949 23.3606 28.6745 20.8999C28.3764 19.4841 28.112 18.0598 27.932 16.6242C27.9039 16.3891 27.7548 16.1938 27.5017 16.1909C27.2879 16.1881 27.0404 16.3891 27.0685 16.6213Z" fill="white"/>
<path d="M3.82794 43.1819C5.46206 43.2442 7.11026 42.8166 8.68251 42.4258C10.4657 41.9841 12.2405 41.5169 14.0096 41.0242C15.9166 40.4947 17.8291 40.0077 19.7698 39.6254C21.7499 39.2346 23.7216 38.7986 25.6932 38.3625C26.7367 38.1331 27.7886 37.9264 28.8152 37.6263C29.8277 37.3318 30.829 36.9835 31.8613 36.7655C32.1003 36.7145 32.2044 36.4512 32.1622 36.2331C32.1003 35.9188 32.0075 35.6158 31.9006 35.3129C31.715 34.7918 30.8825 35.0155 31.0709 35.5422C31.1778 35.8424 31.2706 36.1482 31.3325 36.4625C31.4338 36.2841 31.5322 36.1057 31.6334 35.9302C30.725 36.1227 29.8446 36.4115 28.9558 36.6805C28.0727 36.9467 27.1811 37.1477 26.2782 37.346C24.3291 37.7735 22.3828 38.2096 20.428 38.6089C18.5042 39.0024 16.5972 39.4159 14.7015 39.934C12.8761 40.4324 11.0535 40.9364 9.21691 41.398C7.47027 41.8369 5.6477 42.3834 3.82794 42.3154C3.27104 42.2928 3.27385 43.1592 3.82794 43.1819Z" fill="white"/>
<path d="M0.596212 22.0751C2.41879 23.2757 4.57606 23.8392 6.56739 24.6802C8.77248 25.6146 10.8116 26.9058 13.0055 27.8799C14.2149 28.415 15.4299 28.9644 16.524 29.7148C16.9825 30.0291 17.4156 29.2787 16.96 28.9672C15.9981 28.3074 14.9434 27.8063 13.883 27.3277C12.7805 26.8322 11.6892 26.3282 10.6232 25.7618C9.56283 25.1983 8.51653 24.6094 7.42243 24.1138C6.40989 23.6551 5.36641 23.2813 4.32855 22.8878C3.19226 22.4545 2.05315 21.9986 1.03217 21.3247C0.565273 21.0217 0.13213 21.7721 0.596212 22.0751Z" fill="white"/>
<path d="M27.0122 16.474C26.295 17.165 25.6903 17.9691 25.0912 18.7648C24.4387 19.6284 23.7665 20.4666 23.083 21.3048C21.6626 23.0434 20.2198 24.7423 18.7066 26.3988C17.905 27.2738 17.1231 28.1771 16.4818 29.1823C16.1808 29.6552 16.9262 30.0884 17.2243 29.6212C18.3409 27.8627 19.9019 26.4413 21.252 24.8697C22.6949 23.1878 24.1237 21.4718 25.4597 19.7021C26.1403 18.8016 26.8041 17.8757 27.6197 17.0913C28.0248 16.7006 27.4144 16.0889 27.0122 16.474Z" fill="white"/>
<path d="M30.9049 31.4109C33.4672 31.4137 36.0239 31.5355 38.5862 31.5298C41.0107 31.5242 43.4323 31.6204 45.8568 31.5865C47.1365 31.5695 48.4331 31.5751 49.6847 31.8696C50.2248 31.997 50.4526 31.1617 49.9126 31.0343C47.6737 30.5048 45.3646 30.8134 43.092 30.7313C40.5044 30.6407 37.9168 30.6832 35.3292 30.6237C33.8525 30.5897 32.3787 30.5444 30.9021 30.5444C30.3508 30.5444 30.3508 31.4109 30.9049 31.4109Z" fill="white"/>
<path d="M23.1478 38.3057C22.0143 41.9613 22.0199 45.8831 20.7036 49.4905C20.5124 50.0144 21.3449 50.2409 21.5334 49.7199C22.8497 46.1124 22.844 42.1906 23.9775 38.535C24.1463 38.0027 23.3137 37.7733 23.1478 38.3057Z" fill="white"/>
<path d="M21.269 50.04C24.3123 50.057 27.3555 50.1759 30.3932 50.3911C33.6867 50.6233 36.9859 50.7252 40.2879 50.7167C42.0824 50.7111 43.8937 50.7111 45.6713 50.9942C46.2141 51.0792 46.4476 50.2438 45.8991 50.1589C42.7096 49.652 39.4385 49.8956 36.2209 49.8049C32.9583 49.7115 29.7041 49.4397 26.4442 49.3009C24.7201 49.2273 22.996 49.182 21.269 49.1735C20.715 49.1678 20.7121 50.0343 21.269 50.04Z" fill="white"/>
<path d="M49.353 31.561C49.339 34.1973 48.8215 36.7853 48.228 39.3451C47.927 40.6477 47.6036 41.9474 47.3139 43.2527C47.027 44.5355 46.802 45.8323 46.5039 47.1122C46.3717 47.6814 46.2282 48.2392 46.141 48.8168C46.0735 49.2699 46.0454 49.8221 45.781 50.21C45.466 50.6715 46.2114 51.1048 46.5236 50.6489C47.027 49.9127 46.9595 48.8367 47.1733 47.9957C47.5108 46.6761 47.7414 45.334 48.0283 44.0003C48.5964 41.3612 49.3193 38.7561 49.7749 36.0916C50.0309 34.5965 50.2024 33.0844 50.2109 31.5639C50.2165 31.0032 49.3559 31.0004 49.353 31.561Z" fill="white"/>
<path d="M49.3725 31.3654C48.3291 31.742 47.5134 32.5547 46.664 33.24C46.1999 33.6137 45.688 33.9252 45.1958 34.2593C44.6164 34.6529 44.0426 35.055 43.4689 35.4571C42.3495 36.2386 41.2132 36.989 40.0515 37.7054C38.9152 38.4105 37.734 39.0702 36.6511 39.8603C35.6161 40.6163 34.6232 41.5734 33.3744 41.9556C32.8456 42.117 33.0706 42.9552 33.6022 42.791C34.716 42.4512 35.6301 41.715 36.5414 41.0156C37.5708 40.2255 38.6818 39.5629 39.7843 38.8834C42.1076 37.4534 44.3492 35.9045 46.6021 34.3613C47.5978 33.6789 48.45 32.617 49.6032 32.2008C50.1207 32.0139 49.8957 31.1757 49.3725 31.3654Z" fill="white"/>
<path d="M29.6308 37.2525C29.9262 37.6461 30.1287 38.0963 30.3762 38.5239C30.6546 39.0052 30.9893 39.4583 31.2875 39.9283C31.8809 40.8628 32.4266 41.851 33.11 42.7231C33.2535 42.9072 33.5685 42.876 33.7204 42.7231C33.9004 42.5419 33.8638 42.2956 33.7204 42.1087C33.3997 41.7009 33.1382 41.2479 32.8682 40.8033C32.5813 40.3304 32.2747 39.8689 31.9794 39.4017C31.6981 38.9599 31.3831 38.538 31.1243 38.085C30.8796 37.6602 30.6771 37.21 30.379 36.8136C30.2384 36.6267 30.0077 36.5304 29.7912 36.6578C29.6027 36.7654 29.4902 37.0628 29.6308 37.2525Z" fill="white"/>
<path d="M31.7657 6.439C32.4688 8.5627 32.7698 10.7883 33.1298 12.9885C33.5011 15.2538 34.0776 17.4454 34.7189 19.6456C35.0958 20.9453 35.4755 22.245 35.799 23.5589C35.9312 24.0997 36.7637 23.8703 36.6287 23.3295C36.0605 21.0302 35.3236 18.7791 34.7274 16.4884C34.1648 14.3278 33.8864 12.1192 33.4926 9.92187C33.2676 8.66464 32.9948 7.41873 32.5926 6.2068C32.421 5.68013 31.5885 5.90665 31.7657 6.439Z" fill="white"/>
<path d="M32.556 6.69663C33.5657 6.05102 34.9242 6.05386 36.0689 5.816C37.7312 5.47055 39.3962 5.11659 41.0472 4.71168C42.6898 4.30959 44.3155 3.84237 45.9496 3.40914C47.5866 2.97307 49.232 2.58514 50.8773 2.18589C51.7324 1.97635 52.5733 1.70735 53.4312 1.5148C54.1934 1.3449 54.9613 1.18067 55.656 0.804064C56.1454 0.537894 55.7094 -0.209649 55.22 0.0565214C54.5956 0.393482 53.8868 0.526567 53.2006 0.682306C52.4749 0.843707 51.7689 1.07024 51.0489 1.25429C49.4063 1.67053 47.7553 2.03864 46.1184 2.47188C44.4843 2.90228 42.8586 3.3695 41.2216 3.78008C39.5734 4.19349 37.9112 4.55027 36.2489 4.89856C35.5205 5.05147 34.7892 5.15907 34.0579 5.29782C33.3941 5.42241 32.705 5.58381 32.1256 5.95192C31.6559 6.2464 32.0863 6.99678 32.556 6.69663Z" fill="white"/>
<path d="M55.0653 0.727637C55.9878 2.55402 56.466 4.58428 56.9751 6.55508C57.5348 8.71842 58.2295 10.828 58.882 12.963C59.2955 14.3137 59.6949 15.67 60.083 17.0292C60.2349 17.5643 61.0674 17.3378 60.9127 16.7998C60.2236 14.393 59.498 12.0002 58.7273 9.61887C58.0748 7.60843 57.6445 5.53287 57.0369 3.50827C56.7079 2.40678 56.3225 1.31661 55.805 0.291571C55.5575 -0.206791 54.815 0.232107 55.0653 0.727637Z" fill="white"/>
<path d="M36.5218 23.9525C37.1321 23.6551 37.8972 23.6495 38.5553 23.5136C39.3794 23.3408 40.1923 23.1143 41.0051 22.8991C42.6308 22.4659 44.2677 22.0808 45.8934 21.656C47.5248 21.2285 49.1392 20.7471 50.7705 20.3308C52.3765 19.9203 54.0331 19.6258 55.6026 19.0906C56.4436 18.8046 57.2986 18.5441 58.1283 18.2298C58.9243 17.9296 59.7118 17.5247 60.564 17.4115C60.7778 17.3831 61.0169 17.2359 60.9944 16.9782C60.9944 16.9641 60.9916 16.9527 60.9916 16.9386C60.9719 16.7149 60.8087 16.4912 60.5612 16.5053C60.5331 16.5082 60.5022 16.5082 60.474 16.5025C59.9228 16.4515 59.9256 17.318 60.474 17.369C60.5022 17.3746 60.5331 17.3746 60.5612 17.3718C60.4178 17.2274 60.2743 17.083 60.1309 16.9386C60.1309 16.9527 60.1337 16.9641 60.1337 16.9782C60.2772 16.8338 60.4206 16.6894 60.564 16.545C59.7878 16.6498 59.079 16.9244 58.3561 17.2161C57.6249 17.5106 56.8711 17.7314 56.1285 17.9919C54.5197 18.5611 52.8687 18.9122 51.2149 19.3256C49.5555 19.739 47.9157 20.2176 46.2675 20.6621C44.5771 21.118 42.8727 21.5145 41.1795 21.959C40.2738 22.1969 39.3766 22.4545 38.4625 22.6528C37.675 22.8227 36.8228 22.851 36.0887 23.2077C35.588 23.4456 36.024 24.196 36.5218 23.9525Z" fill="white"/>
<path d="M32.2044 6.53806C32.3479 6.79573 32.632 6.92882 32.8907 7.03642C33.2648 7.19499 33.6501 7.31675 34.0354 7.44134C34.9777 7.74432 35.8271 8.24834 36.7271 8.73821C38.9153 9.93315 41.2329 10.8449 43.5561 11.7312C44.8978 12.2437 46.245 12.7449 47.581 13.2744C48.0957 13.4783 48.3207 12.6402 47.8088 12.4391C45.5644 11.5472 43.289 10.7402 41.0557 9.82555C39.9307 9.364 38.8113 8.87696 37.7368 8.30498C36.7806 7.79529 35.8411 7.18366 34.8258 6.79573C34.4714 6.65981 34.1058 6.56071 33.7457 6.43895C33.5601 6.37665 33.3689 6.31436 33.1917 6.23224C33.1242 6.2011 33.0623 6.16712 32.9976 6.13031C32.9301 6.09349 32.9217 6.05385 32.947 6.09916C32.6798 5.61212 31.9344 6.04819 32.2044 6.53806Z" fill="white"/>
<path d="M54.9388 0.472725C53.4847 2.65023 52.3343 5.00895 51.0405 7.28273C50.3711 8.46068 49.6792 9.63296 48.9508 10.7769C48.7173 11.145 48.512 11.5131 48.3067 11.8982C48.2251 12.0568 47.986 12.541 47.8623 12.4957C47.3419 12.2975 47.1197 13.1357 47.6345 13.331C48.3264 13.5944 48.8017 12.81 49.0689 12.3003C49.4852 11.5018 49.9858 10.7599 50.4499 9.98974C51.6002 8.07558 52.6578 6.11328 53.7378 4.15664C54.3482 3.05232 54.981 1.95932 55.6813 0.908792C55.9935 0.444409 55.2482 0.0111742 54.9388 0.472725Z" fill="white"/>
</g>
<defs>
<clipPath id="clip0_470:78433">
<rect width="61" height="51" fill="white"/>
</clipPath>
</defs>
</svg>
