<svg width="615" height="158" viewBox="0 0 615 158" fill="none" xmlns="http://www.w3.org/2000/svg">
<path d="M222.8 110.75H272.58V121.81H206.9V114.21L254.95 46.4599H208.63V35.3999H270.85V42.9999L222.8 110.75ZM281.87 121.82H293.28V35.3999H281.87V121.82ZM343.62 109.89L313.37 35.3999H301.27L336.7 121.82H350.53L385.96 35.3999H373.86L343.62 109.89ZM465.59 35.3999L435.34 109.89L405.1 35.3999H393L428.43 121.82H442.26L477.69 35.3999H465.59ZM563.77 78.9499C563.77 80.6799 563.6 82.5799 563.42 84.3099H487.55C489.97 101.94 503.62 112.83 521.94 112.83C535.59 112.83 545.1 106.43 549.77 98.1399L559.79 104.02C552.53 115.77 539.22 123.9 521.77 123.9C494.46 123.9 475.8 104.72 475.8 78.6199C475.8 53.2099 494.12 33.3399 520.91 33.3399C547.35 33.3299 563.77 55.2799 563.77 78.9499ZM552.01 73.2499C549.59 54.2399 535.76 44.3899 520.9 44.3899C502.75 44.3899 489.79 56.3099 487.54 73.2499H552.01ZM572.24 35.3999V121.82H583.65V46.8099L614.58 46.8199V35.3999H572.24ZM287.57 13.0199C283.55 13.0199 280.29 16.2799 280.29 20.2999C280.29 24.3199 283.55 27.5799 287.57 27.5799C291.59 27.5799 294.85 24.3199 294.85 20.2999C294.85 16.2799 291.6 13.0199 287.57 13.0199ZM22.86 28.4299C30.67 28.4299 37.01 22.0999 37.01 14.2799C37.01 6.46988 30.68 0.129883 22.86 0.129883C15.04 0.129883 8.71002 6.45988 8.71002 14.2799C8.71002 22.0899 15.05 28.4299 22.86 28.4299ZM96.89 138.84C96.89 149.32 105.39 157.82 115.87 157.82C126.35 157.82 134.85 149.32 134.85 138.84C134.85 128.36 126.35 119.86 115.87 119.86C105.39 119.86 96.89 128.36 96.89 138.84ZM127.87 22.2899L128.11 21.9899L128.1 21.9799C129.54 20.0699 130.4 17.7099 130.4 15.1299C130.4 8.88988 125.39 3.82988 119.18 3.71988V3.70987H119.04C119.02 3.70987 119.01 3.70987 118.99 3.70987C118.97 3.70987 118.96 3.70987 118.94 3.70987L54.53 4.28989C49 4.28989 44.51 8.77988 44.51 14.3099C44.51 19.8399 49 24.3299 54.53 24.3299L94.66 25.4899L4.22003 128.23C3.95003 128.52 3.68002 128.81 3.43002 129.12C1.31002 131.73 0.0400391 135.06 0.0400391 138.69C0.0400391 147.08 6.84002 153.89 15.24 153.89L71.65 153.93C79.96 153.93 86.69 147.2 86.69 138.89C86.69 130.58 79.96 123.85 71.65 123.85L46.69 123.69L127.76 22.4399C127.8 22.3899 127.83 22.3399 127.87 22.2899Z" fill="black"/>
</svg>
